<?xml version="1.0" standalone="no"?>
<svg version="1.0" xmlns="http://www.w3.org/2000/svg"
 width="200.000000pt" height="51.000000pt" viewBox="0 0 200.000000 51.000000"
 preserveAspectRatio="xMidYMid meet">

<g transform="translate(0.000000,51.000000) scale(0.100000,-0.100000)"
fill="#7843e9" stroke="none">
<path d="M136 378 c-14 -62 -26 -121 -26 -131 0 -38 -59 -127 -85 -127 -13 0
-25 -43 -25 -86 0 -38 28 -29 36 11 l6 35 119 0 119 0 0 -35 c0 -28 4 -35 20
-35 16 0 20 7 20 33 0 17 3 42 6 55 5 19 2 22 -19 22 -14 0 -28 3 -30 8 -3 6
20 207 38 325 l5 37 -79 0 -79 0 -26 -112z m129 -5 c-20 -279 -9 -253 -108
-253 -76 0 -79 1 -64 18 21 23 66 159 73 219 11 95 10 93 60 93 l45 0 -6 -77z"/>
<path d="M739 373 c-21 -5 -27 -33 -35 -164 -6 -100 -6 -107 13 -117 15 -8 25
-7 41 4 12 8 22 19 22 24 0 5 12 29 28 53 l27 44 -3 -69 c-7 -115 12 -75 31
65 21 159 21 157 2 157 -10 0 -15 -10 -15 -27 0 -35 -18 -87 -47 -136 -13 -21
-23 -42 -23 -47 0 -9 -32 -30 -44 -30 -10 0 -6 63 10 154 8 48 14 89 12 90 -2
1 -10 1 -19 -1z"/>
<path d="M1048 319 l-43 -60 -3 56 c-2 35 -7 55 -15 55 -9 0 -19 -46 -31 -140
-10 -78 -16 -143 -14 -146 11 -11 38 10 38 30 0 36 37 125 72 171 54 73 55 70
32 -142 -4 -35 -4 -63 -1 -63 22 0 37 16 37 39 0 58 85 219 106 199 3 -4 1
-57 -4 -120 -6 -62 -9 -115 -6 -117 12 -12 28 25 36 81 22 176 22 184 -2 201
-21 15 -23 14 -49 -16 -15 -18 -33 -48 -41 -67 -21 -55 -32 -60 -24 -10 3 25
7 47 6 50 0 29 -5 38 -26 48 -22 10 -27 6 -68 -49z"/>
<path d="M1604 372 c-6 -4 -19 -63 -29 -130 l-18 -124 21 -21 22 -21 24 23
c14 13 34 43 45 66 40 85 48 65 25 -57 -4 -19 -1 -28 8 -28 30 0 35 18 41 135
3 66 8 128 12 138 5 12 2 17 -9 17 -9 0 -18 -12 -22 -27 -10 -49 -58 -152 -86
-186 -20 -25 -29 -29 -38 -20 -10 9 -9 36 5 123 9 61 15 113 13 115 -2 2 -8 1
-14 -3z"/>
<path d="M426 361 c-4 -5 -11 -43 -16 -83 -5 -40 -16 -100 -24 -133 -16 -65
-15 -71 9 -62 10 4 15 19 15 45 0 22 7 73 17 113 18 84 22 80 49 -43 9 -43 19
-78 23 -78 7 0 24 36 67 138 9 24 21 45 25 48 5 3 6 -47 2 -111 -5 -99 -4
-115 9 -115 18 0 28 75 28 206 0 81 -1 84 -23 84 -17 0 -28 -10 -40 -35 -9
-20 -17 -43 -17 -53 -1 -9 -11 -37 -24 -62 l-24 -45 -6 50 c-17 129 -20 140
-43 143 -11 2 -24 -1 -27 -7z"/>
<path d="M1339 185 c-23 -170 -23 -185 -8 -185 17 0 29 27 29 65 0 16 7 20 35
21 44 1 91 43 105 93 11 40 13 134 4 169 -8 26 -42 30 -51 5 -6 -17 -47 -77
-66 -98 -6 -6 -7 14 -3 53 4 47 3 62 -7 62 -9 0 -20 -54 -38 -185z m149 69
c-2 -28 -13 -68 -25 -90 -17 -33 -25 -39 -56 -42 -35 -3 -37 -1 -37 25 0 16
20 63 46 106 39 66 49 76 61 65 11 -9 14 -26 11 -64z"/>
<path d="M1820 277 c0 -125 16 -138 89 -71 14 13 27 21 29 16 1 -4 -2 -37 -7
-72 -5 -36 -7 -67 -5 -69 2 -2 10 -1 19 2 10 5 15 21 15 54 1 26 7 90 14 141
10 73 10 92 0 92 -15 0 -24 -23 -24 -65 0 -29 -7 -40 -46 -69 -26 -20 -51 -33
-56 -30 -7 4 -8 36 -3 85 5 68 4 79 -9 79 -13 0 -16 -15 -16 -93z"/>
</g>
</svg>
